<svg version="1" xmlns="http://www.w3.org/2000/svg" width="1066.667" height="1066.667" viewBox="0 0 800.000000 800.000000"><path d="M52.3 281.7c.3 156.8.5 173.8 2 183.2 5.1 31.2 14.2 52.3 29.6 68.4 13.8 14.5 29 22.7 52.6 28.3 10.4 2.5 130.5 3.3 146.5.9 28.7-4.2 52.3-15.6 71.1-34.4 21.3-21.3 32.3-47 38.1-88.6 1.6-11.8 1.6-55-.1-68-8.6-67.8-42.2-108.4-100.9-121.7-9.5-2.1-11.4-2.2-91.9-2.5l-82.3-.4V109H51.9l.4 172.7zm224.1 30.1c33.1 9.3 47.9 31.5 51.7 77.6 2.4 30.1-1.5 58.4-10.7 77.4-9.8 20.4-26.9 31-54.9 34.2-11.7 1.3-76.3 1.3-88 0-34.9-4-50.5-18.6-56-52.5-1.2-7.2-1.5-21.7-1.5-74.3v-65.3l75.8.3c74.7.4 75.8.4 83.6 2.6zM500.5 248.1c-16.1 2.1-35.6 9.1-47.2 17-7 4.7-17.8 15.4-22.9 22.5-9.5 13.3-16.5 31.7-20.7 54.9-2.1 12-2.1 12.3-2.5 180.7l-.3 168.8H472V565h67.3c69-.1 91.3-.8 105.2-3.4 39-7.6 71-31.6 87-65.3 11.8-24.7 16.8-52.1 16.8-90.8 0-48.7-9-83.5-28.4-109.6-6.1-8.3-19.5-21.2-27.8-26.8-8.9-6.1-25-13.5-35.6-16.5-18.6-5.2-25.2-5.6-89.6-5.5-32.7.1-62.5.6-66.4 1zm130.7 63.7c27.8 7.7 41.9 23.9 49 56.3 2 9.4 2.3 13 2.3 37.4s-.3 28-2.3 37.4c-7.4 33.7-22 49.6-52.3 56.7-6.6 1.6-15.3 1.8-81.7 2.1l-74.3.4.3-70.3c.4-69.2.4-70.4 2.6-78.3 7.7-27.7 22.2-39.7 52.7-43.9 1.7-.2 23.9-.3 49.5-.2 44.1.2 46.9.3 54.2 2.4z"/></svg>