<?xml version="1.0" standalone="no"?>
<!DOCTYPE svg PUBLIC "-//W3C//DTD SVG 20010904//EN"
 "http://www.w3.org/TR/2001/REC-SVG-20010904/DTD/svg10.dtd">
<svg version="1.0" xmlns="http://www.w3.org/2000/svg"
 width="800.000000pt" height="800.000000pt" viewBox="0 0 800.000000 800.000000"
 preserveAspectRatio="xMidYMid meet">
<metadata>
Created by potrace 1.15, written by Peter Selinger 2001-2017
</metadata>
<g transform="translate(0.000000,800.000000) scale(0.100000,-0.100000)"
fill="#7044a6" stroke="none">
<path d="M523 5183 c3 -1568 5 -1738 20 -1832 51 -312 142 -523 296 -684 138
-145 290 -227 526 -283 104 -25 1305 -33 1465 -9 287 42 523 156 711 344 213
213 323 470 381 886 16 118 16 550 -1 680 -86 678 -422 1084 -1009 1217 -95
21 -114 22 -919 25 l-823 4 0 689 0 690 -325 0 -326 0 4 -1727z m2241 -301
c331 -93 479 -315 517 -776 24 -301 -15 -584 -107 -774 -98 -204 -269 -310
-549 -342 -117 -13 -763 -13 -880 0 -349 40 -505 186 -560 525 -12 72 -15 217
-15 743 l0 653 758 -3 c747 -4 758 -4 836 -26z"/>
</g>
<g transform="translate(0.000000,800.000000) scale(0.100000,-0.100000)"
fill="#1c78c0" stroke="none">
<path d="M5005 5519 c-161 -21 -356 -91 -472 -170 -70 -47 -178 -154 -229
-225 -95 -133 -165 -317 -207 -549 -21 -120 -21 -123 -25 -1807 l-3 -1688 326
0 325 0 0 635 0 635 673 0 c690 1 913 8 1052 34 390 76 710 316 870 653 118
247 168 521 168 908 0 487 -90 835 -284 1096 -61 83 -195 212 -278 268 -89 61
-250 135 -356 165 -186 52 -252 56 -896 55 -327 -1 -625 -6 -664 -10z m1307
-637 c278 -77 419 -239 490 -563 20 -94 23 -130 23 -374 0 -244 -3 -280 -23
-374 -74 -337 -220 -496 -523 -567 -66 -16 -153 -18 -817 -21 l-743 -4 3 703
c4 692 4 704 26 783 77 277 222 397 527 439 17 2 239 3 495 2 441 -2 469 -3
542 -24z"/>
</g>
</svg>
